<svg xmlns="http://www.w3.org/2000/svg" style="display: none;">
    <!-- checked -->
    <symbol id="checked" viewBox="0 0 24 24">
        <path d="M16 0H2a2 2 0 00-2 2v14a2 2 0 002 2h14a2 2 0 002-2V2a2 2 0 00-2-2zM7 14L2 9l1.41-1.41L7 11.17l7.59-7.59L16 5l-9 9z"/>
    </symbol>
    <!-- arrow down -->
    <symbol id="arrowDown" viewBox="0 0 16 16" >
        <path d="M3.67611 6.30553C3.6758 6.14977 3.73005 5.99881 3.82944 5.87887C3.8854 5.81136 3.95414 5.75556 4.0317 5.71466C4.10927 5.67376 4.19414 5.64856 4.28146 5.64051C4.36877 5.63246 4.45682 5.64171 4.54056 5.66774C4.62429 5.69377 4.70207 5.73607 4.76944 5.7922L8.34277 8.77887L11.9228 5.89887C11.991 5.84349 12.0694 5.80214 12.1537 5.77718C12.2379 5.75223 12.3262 5.74417 12.4136 5.75346C12.5009 5.76275 12.5856 5.78922 12.6627 5.83133C12.7397 5.87345 12.8078 5.93038 12.8628 5.99887C12.9235 6.06785 12.9692 6.14862 12.9972 6.23613C13.0252 6.32364 13.0348 6.41599 13.0254 6.50738C13.016 6.59878 12.9879 6.68725 12.9427 6.76724C12.8975 6.84722 12.8362 6.91701 12.7628 6.9722L8.76277 10.1922C8.64348 10.2903 8.49385 10.3439 8.33944 10.3439C8.18502 10.3439 8.03539 10.2903 7.91611 10.1922L3.91611 6.85887C3.83543 6.79199 3.77165 6.70703 3.72995 6.61089C3.68825 6.51475 3.6698 6.41014 3.67611 6.30553Z"/>
    </symbol>

    <symbol id="logoUserDrop" viewBox="0 0 16 16">
        <path d="M7.99998 7.33431C8.5274 7.33431 9.04297 7.17791 9.4815 6.8849C9.92003 6.59188 10.2618 6.1754 10.4637 5.68813C10.6655 5.20086 10.7183 4.66469 10.6154 4.1474C10.5125 3.63012 10.2585 3.15497 9.8856 2.78203C9.51266 2.40909 9.0375 2.15511 8.52022 2.05222C8.00294 1.94932 7.46676 2.00213 6.97949 2.20397C6.49222 2.4058 6.07574 2.74759 5.78273 3.18612C5.48971 3.62465 5.33331 4.14023 5.33331 4.66764C5.33331 5.37489 5.61426 6.05317 6.11436 6.55326C6.61446 7.05336 7.29274 7.33431 7.99998 7.33431ZM7.99998 3.33431C8.26369 3.33431 8.52147 3.41251 8.74074 3.55902C8.96001 3.70553 9.1309 3.91376 9.23182 4.1574C9.33274 4.40103 9.35914 4.66912 9.30769 4.92776C9.25625 5.18641 9.12926 5.42398 8.94279 5.61045C8.75632 5.79692 8.51874 5.92391 8.2601 5.97536C8.00146 6.0268 7.73337 6.0004 7.48974 5.89948C7.2461 5.79857 7.03786 5.62767 6.89135 5.4084C6.74485 5.18914 6.66665 4.93135 6.66665 4.66764C6.66665 4.31402 6.80712 3.97488 7.05717 3.72484C7.30722 3.47479 7.64636 3.33431 7.99998 3.33431Z"
        />
        <path d="M7.99998 8.66748C6.7623 8.66748 5.57532 9.15915 4.70015 10.0343C3.82498 10.9095 3.33331 12.0965 3.33331 13.3341C3.33331 13.511 3.40355 13.6805 3.52858 13.8056C3.6536 13.9306 3.82317 14.0008 3.99998 14.0008C4.17679 14.0008 4.34636 13.9306 4.47138 13.8056C4.59641 13.6805 4.66665 13.511 4.66665 13.3341C4.66665 12.4501 5.01784 11.6022 5.64296 10.9771C6.26808 10.352 7.11592 10.0008 7.99998 10.0008C8.88403 10.0008 9.73188 10.352 10.357 10.9771C10.9821 11.6022 11.3333 12.4501 11.3333 13.3341C11.3333 13.511 11.4036 13.6805 11.5286 13.8056C11.6536 13.9306 11.8232 14.0008 12 14.0008C12.1768 14.0008 12.3464 13.9306 12.4714 13.8056C12.5964 13.6805 12.6666 13.511 12.6666 13.3341C12.6666 12.0965 12.175 10.9095 11.2998 10.0343C10.4246 9.15915 9.23766 8.66748 7.99998 8.66748Z"
        />
    </symbol>

    <symbol id="logout" viewBox="0 0 16 16">
        <path d="M4.66669 4.00081C4.8435 4.00081 5.01307 3.93058 5.13809 3.80555C5.26312 3.68053 5.33335 3.51096 5.33335 3.33415C5.33335 3.15734 5.26312 2.98777 5.13809 2.86274C5.01307 2.73772 4.8435 2.66748 4.66669 2.66748H3.33335C3.15654 2.66748 2.98697 2.73772 2.86195 2.86274C2.73693 2.98777 2.66669 3.15734 2.66669 3.33415V12.6675C2.66669 12.8443 2.73693 13.0139 2.86195 13.1389C2.98697 13.2639 3.15654 13.3341 3.33335 13.3341H4.66669C4.8435 13.3341 5.01307 13.2639 5.13809 13.1389C5.26312 13.0139 5.33335 12.8443 5.33335 12.6675C5.33335 12.4907 5.26312 12.3211 5.13809 12.1961C5.01307 12.0711 4.8435 12.0008 4.66669 12.0008H4.00002V4.00081H4.66669Z"
        />
        <path d="M13.88 7.61411L12 4.94745C11.898 4.80372 11.7433 4.70621 11.5697 4.67623C11.396 4.64625 11.2176 4.68623 11.0733 4.78745C11.0012 4.83797 10.9399 4.90228 10.8927 4.97665C10.8456 5.05103 10.8137 5.134 10.7988 5.22077C10.784 5.30755 10.7864 5.39641 10.8061 5.48223C10.8257 5.56805 10.8622 5.64913 10.9133 5.72078L12.06 7.33411H6.66667C6.48986 7.33411 6.32029 7.40435 6.19526 7.52938C6.07024 7.6544 6 7.82397 6 8.00078C6 8.17759 6.07024 8.34716 6.19526 8.47219C6.32029 8.59721 6.48986 8.66745 6.66667 8.66745H12L10.8 10.2674C10.7475 10.3375 10.7093 10.4172 10.6875 10.502C10.6658 10.5868 10.661 10.6751 10.6734 10.7617C10.6857 10.8484 10.7151 10.9318 10.7597 11.0071C10.8043 11.0824 10.8633 11.1483 10.9333 11.2008C11.0487 11.2873 11.1891 11.3341 11.3333 11.3341C11.4368 11.3341 11.5389 11.31 11.6315 11.2637C11.724 11.2174 11.8046 11.1502 11.8667 11.0674L13.8667 8.40078C13.952 8.28803 13.9994 8.15104 14.0018 8.00962C14.0041 7.86821 13.9615 7.7297 13.88 7.61411Z"
        />
    </symbol>


    <symbol id="playLearn">
        <path id="Vector"
              d="M8 1.33447C6.68146 1.33447 5.39252 1.72547 4.2962 2.45801C3.19987 3.19055 2.34539 4.23174 1.8408 5.44992C1.33622 6.66809 1.20419 8.00853 1.46143 9.30174C1.71866 10.5949 2.3536 11.7828 3.28595 12.7152C4.2183 13.6475 5.40619 14.2825 6.6994 14.5397C7.9926 14.7969 9.33305 14.6649 10.5512 14.1603C11.7694 13.6558 12.8106 12.8013 13.5431 11.7049C14.2757 10.6086 14.6667 9.31968 14.6667 8.00114C14.6667 7.12566 14.4942 6.25875 14.1592 5.44992C13.8242 4.64108 13.3331 3.90615 12.714 3.28709C12.095 2.66804 11.3601 2.17697 10.5512 1.84194C9.74238 1.50691 8.87548 1.33447 8 1.33447ZM8 13.3345C6.94516 13.3345 5.91402 13.0217 5.03696 12.4356C4.15989 11.8496 3.47631 11.0167 3.07264 10.0421C2.66897 9.06758 2.56336 7.99522 2.76914 6.96066C2.97493 5.92609 3.48288 4.97578 4.22876 4.2299C4.97464 3.48402 5.92495 2.97607 6.95952 2.77028C7.99408 2.5645 9.06644 2.67011 10.041 3.07378C11.0155 3.47745 11.8485 4.16104 12.4345 5.0381C13.0205 5.91516 13.3333 6.94631 13.3333 8.00114C13.3333 9.41563 12.7714 10.7722 11.7712 11.7724C10.771 12.7726 9.41449 13.3345 8 13.3345Z"/>
        <path id="Vector_2"
              d="M8.22666 4.9674C8.06331 4.81687 7.85932 4.71765 7.64004 4.68209C7.42077 4.64654 7.19588 4.6762 6.99333 4.7674C6.7967 4.84694 6.62825 4.9833 6.5095 5.15905C6.39075 5.3348 6.32709 5.54196 6.32666 5.75407V10.2474C6.32709 10.4595 6.39075 10.6667 6.5095 10.8424C6.62825 11.0182 6.7967 11.1545 6.99333 11.2341C7.13784 11.2996 7.29464 11.3337 7.45333 11.3341C7.73927 11.3328 8.01467 11.226 8.22666 11.0341L10.6667 8.7874C10.7758 8.68747 10.8629 8.56593 10.9226 8.43049C10.9822 8.29506 11.013 8.14871 11.013 8.00074C11.013 7.85276 10.9822 7.70641 10.9226 7.57098C10.8629 7.43555 10.7758 7.314 10.6667 7.21407L8.22666 4.9674ZM7.66666 9.73407V6.2674L9.53999 8.00074L7.66666 9.73407Z"/>
    </symbol>


    <symbol id="edit" viewBox="0 0 24 24">
        <path d="M19 20H5C4.73478 20 4.48043 20.1054 4.29289 20.2929C4.10536 20.4804 4 20.7348 4 21C4 21.2652 4.10536 21.5196 4.29289 21.7071C4.48043 21.8946 4.73478 22 5 22H19C19.2652 22 19.5196 21.8946 19.7071 21.7071C19.8946 21.5196 20 21.2652 20 21C20 20.7348 19.8946 20.4804 19.7071 20.2929C19.5196 20.1054 19.2652 20 19 20Z"
        />
        <path d="M5.00001 18H5.09001L9.26001 17.62C9.7168 17.5745 10.144 17.3732 10.47 17.05L19.47 8.05C19.8193 7.68097 20.0081 7.18851 19.995 6.68054C19.9819 6.17256 19.7679 5.69051 19.4 5.34L16.66 2.6C16.3024 2.2641 15.8338 2.07136 15.3433 2.05845C14.8529 2.04555 14.3748 2.21337 14 2.53L5.00001 11.53C4.67677 11.856 4.47551 12.2832 4.43001 12.74L4.00001 16.91C3.98654 17.0565 4.00554 17.2041 4.05567 17.3424C4.10579 17.4807 4.18581 17.6062 4.29001 17.71C4.38345 17.8027 4.49426 17.876 4.6161 17.9258C4.73794 17.9755 4.8684 18.0008 5.00001 18ZM15.27 4L18 6.73L16 8.68L13.32 6L15.27 4ZM6.37001 12.91L12 7.32L14.7 10.02L9.10001 15.62L6.10001 15.9L6.37001 12.91Z"
        />
    </symbol>

    <symbol id="trashBin" viewBox="0 0 24 24">
        <path d="M21 6H16V4.33C15.9765 3.68982 15.7002 3.08506 15.2316 2.64829C14.7629 2.21153 14.1402 1.97839 13.5 2H10.5C9.85975 1.97839 9.23706 2.21153 8.76843 2.64829C8.2998 3.08506 8.02346 3.68982 8 4.33V6H3C2.73478 6 2.48043 6.10536 2.29289 6.29289C2.10536 6.48043 2 6.73479 2 7C2 7.26522 2.10536 7.51957 2.29289 7.70711C2.48043 7.89464 2.73478 8 3 8H4V19C4 19.7957 4.31607 20.5587 4.87868 21.1213C5.44129 21.6839 6.20435 22 7 22H17C17.7956 22 18.5587 21.6839 19.1213 21.1213C19.6839 20.5587 20 19.7957 20 19V8H21C21.2652 8 21.5196 7.89464 21.7071 7.70711C21.8946 7.51957 22 7.26522 22 7C22 6.73479 21.8946 6.48043 21.7071 6.29289C21.5196 6.10536 21.2652 6 21 6ZM10 4.33C10 4.17 10.21 4 10.5 4H13.5C13.79 4 14 4.17 14 4.33V6H10V4.33ZM18 19C18 19.2652 17.8946 19.5196 17.7071 19.7071C17.5196 19.8946 17.2652 20 17 20H7C6.73478 20 6.48043 19.8946 6.29289 19.7071C6.10536 19.5196 6 19.2652 6 19V8H18V19Z"
        />
    </symbol>
</svg>

