<svg xmlns="http://www.w3.org/2000/svg" style="display: none;">
    <!-- checked -->
    <symbol id="checked" viewBox="0 0 24 24">
        <path d="M16 0H2a2 2 0 00-2 2v14a2 2 0 002 2h14a2 2 0 002-2V2a2 2 0 00-2-2zM7 14L2 9l1.41-1.41L7 11.17l7.59-7.59L16 5l-9 9z"/>
    </symbol>
    <!-- arrow down -->
    <symbol id="arrowDown" viewBox="0 0 16 16">
        <path d="M3.67611 6.30553C3.6758 6.14977 3.73005 5.99881 3.82944 5.87887C3.8854 5.81136 3.95414 5.75556 4.0317 5.71466C4.10927 5.67376 4.19414 5.64856 4.28146 5.64051C4.36877 5.63246 4.45682 5.64171 4.54056 5.66774C4.62429 5.69377 4.70207 5.73607 4.76944 5.7922L8.34277 8.77887L11.9228 5.89887C11.991 5.84349 12.0694 5.80214 12.1537 5.77718C12.2379 5.75223 12.3262 5.74417 12.4136 5.75346C12.5009 5.76275 12.5856 5.78922 12.6627 5.83133C12.7397 5.87345 12.8078 5.93038 12.8628 5.99887C12.9235 6.06785 12.9692 6.14862 12.9972 6.23613C13.0252 6.32364 13.0348 6.41599 13.0254 6.50738C13.016 6.59878 12.9879 6.68725 12.9427 6.76724C12.8975 6.84722 12.8362 6.91701 12.7628 6.9722L8.76277 10.1922C8.64348 10.2903 8.49385 10.3439 8.33944 10.3439C8.18502 10.3439 8.03539 10.2903 7.91611 10.1922L3.91611 6.85887C3.83543 6.79199 3.77165 6.70703 3.72995 6.61089C3.68825 6.51475 3.6698 6.41014 3.67611 6.30553Z"/>
    </symbol>

    <symbol id="logoUserDrop" viewBox="0 0 16 16">
        <path d="M7.99998 7.33431C8.5274 7.33431 9.04297 7.17791 9.4815 6.8849C9.92003 6.59188 10.2618 6.1754 10.4637 5.68813C10.6655 5.20086 10.7183 4.66469 10.6154 4.1474C10.5125 3.63012 10.2585 3.15497 9.8856 2.78203C9.51266 2.40909 9.0375 2.15511 8.52022 2.05222C8.00294 1.94932 7.46676 2.00213 6.97949 2.20397C6.49222 2.4058 6.07574 2.74759 5.78273 3.18612C5.48971 3.62465 5.33331 4.14023 5.33331 4.66764C5.33331 5.37489 5.61426 6.05317 6.11436 6.55326C6.61446 7.05336 7.29274 7.33431 7.99998 7.33431ZM7.99998 3.33431C8.26369 3.33431 8.52147 3.41251 8.74074 3.55902C8.96001 3.70553 9.1309 3.91376 9.23182 4.1574C9.33274 4.40103 9.35914 4.66912 9.30769 4.92776C9.25625 5.18641 9.12926 5.42398 8.94279 5.61045C8.75632 5.79692 8.51874 5.92391 8.2601 5.97536C8.00146 6.0268 7.73337 6.0004 7.48974 5.89948C7.2461 5.79857 7.03786 5.62767 6.89135 5.4084C6.74485 5.18914 6.66665 4.93135 6.66665 4.66764C6.66665 4.31402 6.80712 3.97488 7.05717 3.72484C7.30722 3.47479 7.64636 3.33431 7.99998 3.33431Z"
        />
        <path d="M7.99998 8.66748C6.7623 8.66748 5.57532 9.15915 4.70015 10.0343C3.82498 10.9095 3.33331 12.0965 3.33331 13.3341C3.33331 13.511 3.40355 13.6805 3.52858 13.8056C3.6536 13.9306 3.82317 14.0008 3.99998 14.0008C4.17679 14.0008 4.34636 13.9306 4.47138 13.8056C4.59641 13.6805 4.66665 13.511 4.66665 13.3341C4.66665 12.4501 5.01784 11.6022 5.64296 10.9771C6.26808 10.352 7.11592 10.0008 7.99998 10.0008C8.88403 10.0008 9.73188 10.352 10.357 10.9771C10.9821 11.6022 11.3333 12.4501 11.3333 13.3341C11.3333 13.511 11.4036 13.6805 11.5286 13.8056C11.6536 13.9306 11.8232 14.0008 12 14.0008C12.1768 14.0008 12.3464 13.9306 12.4714 13.8056C12.5964 13.6805 12.6666 13.511 12.6666 13.3341C12.6666 12.0965 12.175 10.9095 11.2998 10.0343C10.4246 9.15915 9.23766 8.66748 7.99998 8.66748Z"
        />
    </symbol>

    <symbol id="logout" viewBox="0 0 16 16">
        <path d="M4.66669 4.00081C4.8435 4.00081 5.01307 3.93058 5.13809 3.80555C5.26312 3.68053 5.33335 3.51096 5.33335 3.33415C5.33335 3.15734 5.26312 2.98777 5.13809 2.86274C5.01307 2.73772 4.8435 2.66748 4.66669 2.66748H3.33335C3.15654 2.66748 2.98697 2.73772 2.86195 2.86274C2.73693 2.98777 2.66669 3.15734 2.66669 3.33415V12.6675C2.66669 12.8443 2.73693 13.0139 2.86195 13.1389C2.98697 13.2639 3.15654 13.3341 3.33335 13.3341H4.66669C4.8435 13.3341 5.01307 13.2639 5.13809 13.1389C5.26312 13.0139 5.33335 12.8443 5.33335 12.6675C5.33335 12.4907 5.26312 12.3211 5.13809 12.1961C5.01307 12.0711 4.8435 12.0008 4.66669 12.0008H4.00002V4.00081H4.66669Z"
        />
        <path d="M13.88 7.61411L12 4.94745C11.898 4.80372 11.7433 4.70621 11.5697 4.67623C11.396 4.64625 11.2176 4.68623 11.0733 4.78745C11.0012 4.83797 10.9399 4.90228 10.8927 4.97665C10.8456 5.05103 10.8137 5.134 10.7988 5.22077C10.784 5.30755 10.7864 5.39641 10.8061 5.48223C10.8257 5.56805 10.8622 5.64913 10.9133 5.72078L12.06 7.33411H6.66667C6.48986 7.33411 6.32029 7.40435 6.19526 7.52938C6.07024 7.6544 6 7.82397 6 8.00078C6 8.17759 6.07024 8.34716 6.19526 8.47219C6.32029 8.59721 6.48986 8.66745 6.66667 8.66745H12L10.8 10.2674C10.7475 10.3375 10.7093 10.4172 10.6875 10.502C10.6658 10.5868 10.661 10.6751 10.6734 10.7617C10.6857 10.8484 10.7151 10.9318 10.7597 11.0071C10.8043 11.0824 10.8633 11.1483 10.9333 11.2008C11.0487 11.2873 11.1891 11.3341 11.3333 11.3341C11.4368 11.3341 11.5389 11.31 11.6315 11.2637C11.724 11.2174 11.8046 11.1502 11.8667 11.0674L13.8667 8.40078C13.952 8.28803 13.9994 8.15104 14.0018 8.00962C14.0041 7.86821 13.9615 7.7297 13.88 7.61411Z"
        />
    </symbol>

    <symbol id="playLearn">
        <path id="Vector"
              d="M8 1.33447C6.68146 1.33447 5.39252 1.72547 4.2962 2.45801C3.19987 3.19055 2.34539 4.23174 1.8408 5.44992C1.33622 6.66809 1.20419 8.00853 1.46143 9.30174C1.71866 10.5949 2.3536 11.7828 3.28595 12.7152C4.2183 13.6475 5.40619 14.2825 6.6994 14.5397C7.9926 14.7969 9.33305 14.6649 10.5512 14.1603C11.7694 13.6558 12.8106 12.8013 13.5431 11.7049C14.2757 10.6086 14.6667 9.31968 14.6667 8.00114C14.6667 7.12566 14.4942 6.25875 14.1592 5.44992C13.8242 4.64108 13.3331 3.90615 12.714 3.28709C12.095 2.66804 11.3601 2.17697 10.5512 1.84194C9.74238 1.50691 8.87548 1.33447 8 1.33447ZM8 13.3345C6.94516 13.3345 5.91402 13.0217 5.03696 12.4356C4.15989 11.8496 3.47631 11.0167 3.07264 10.0421C2.66897 9.06758 2.56336 7.99522 2.76914 6.96066C2.97493 5.92609 3.48288 4.97578 4.22876 4.2299C4.97464 3.48402 5.92495 2.97607 6.95952 2.77028C7.99408 2.5645 9.06644 2.67011 10.041 3.07378C11.0155 3.47745 11.8485 4.16104 12.4345 5.0381C13.0205 5.91516 13.3333 6.94631 13.3333 8.00114C13.3333 9.41563 12.7714 10.7722 11.7712 11.7724C10.771 12.7726 9.41449 13.3345 8 13.3345Z"/>
        <path id="Vector_2"
              d="M8.22666 4.9674C8.06331 4.81687 7.85932 4.71765 7.64004 4.68209C7.42077 4.64654 7.19588 4.6762 6.99333 4.7674C6.7967 4.84694 6.62825 4.9833 6.5095 5.15905C6.39075 5.3348 6.32709 5.54196 6.32666 5.75407V10.2474C6.32709 10.4595 6.39075 10.6667 6.5095 10.8424C6.62825 11.0182 6.7967 11.1545 6.99333 11.2341C7.13784 11.2996 7.29464 11.3337 7.45333 11.3341C7.73927 11.3328 8.01467 11.226 8.22666 11.0341L10.6667 8.7874C10.7758 8.68747 10.8629 8.56593 10.9226 8.43049C10.9822 8.29506 11.013 8.14871 11.013 8.00074C11.013 7.85276 10.9822 7.70641 10.9226 7.57098C10.8629 7.43555 10.7758 7.314 10.6667 7.21407L8.22666 4.9674ZM7.66666 9.73407V6.2674L9.53999 8.00074L7.66666 9.73407Z"/>
    </symbol>

    <symbol id="edit" viewBox="0 0 24 24">
        <path d="M19 20H5C4.73478 20 4.48043 20.1054 4.29289 20.2929C4.10536 20.4804 4 20.7348 4 21C4 21.2652 4.10536 21.5196 4.29289 21.7071C4.48043 21.8946 4.73478 22 5 22H19C19.2652 22 19.5196 21.8946 19.7071 21.7071C19.8946 21.5196 20 21.2652 20 21C20 20.7348 19.8946 20.4804 19.7071 20.2929C19.5196 20.1054 19.2652 20 19 20Z"
        />
        <path d="M5.00001 18H5.09001L9.26001 17.62C9.7168 17.5745 10.144 17.3732 10.47 17.05L19.47 8.05C19.8193 7.68097 20.0081 7.18851 19.995 6.68054C19.9819 6.17256 19.7679 5.69051 19.4 5.34L16.66 2.6C16.3024 2.2641 15.8338 2.07136 15.3433 2.05845C14.8529 2.04555 14.3748 2.21337 14 2.53L5.00001 11.53C4.67677 11.856 4.47551 12.2832 4.43001 12.74L4.00001 16.91C3.98654 17.0565 4.00554 17.2041 4.05567 17.3424C4.10579 17.4807 4.18581 17.6062 4.29001 17.71C4.38345 17.8027 4.49426 17.876 4.6161 17.9258C4.73794 17.9755 4.8684 18.0008 5.00001 18ZM15.27 4L18 6.73L16 8.68L13.32 6L15.27 4ZM6.37001 12.91L12 7.32L14.7 10.02L9.10001 15.62L6.10001 15.9L6.37001 12.91Z"
        />
    </symbol>

    <symbol id="trashBin" viewBox="0 0 24 24">
        <path d="M21 6H16V4.33C15.9765 3.68982 15.7002 3.08506 15.2316 2.64829C14.7629 2.21153 14.1402 1.97839 13.5 2H10.5C9.85975 1.97839 9.23706 2.21153 8.76843 2.64829C8.2998 3.08506 8.02346 3.68982 8 4.33V6H3C2.73478 6 2.48043 6.10536 2.29289 6.29289C2.10536 6.48043 2 6.73479 2 7C2 7.26522 2.10536 7.51957 2.29289 7.70711C2.48043 7.89464 2.73478 8 3 8H4V19C4 19.7957 4.31607 20.5587 4.87868 21.1213C5.44129 21.6839 6.20435 22 7 22H17C17.7956 22 18.5587 21.6839 19.1213 21.1213C19.6839 20.5587 20 19.7957 20 19V8H21C21.2652 8 21.5196 7.89464 21.7071 7.70711C21.8946 7.51957 22 7.26522 22 7C22 6.73479 21.8946 6.48043 21.7071 6.29289C21.5196 6.10536 21.2652 6 21 6ZM10 4.33C10 4.17 10.21 4 10.5 4H13.5C13.79 4 14 4.17 14 4.33V6H10V4.33ZM18 19C18 19.2652 17.8946 19.5196 17.7071 19.7071C17.5196 19.8946 17.2652 20 17 20H7C6.73478 20 6.48043 19.8946 6.29289 19.7071C6.10536 19.5196 6 19.2652 6 19V8H18V19Z"
        />
    </symbol>

    <!-- search -->
    <symbol id="search" viewBox="0 0 20 20" fill="none" xmlns="http://www.w3.org/2000/svg">
        <path d="M17.2583 16.075L14.425 13.25C15.3392 12.0854 15.8352 10.6472 15.8333 9.16667C15.8333 7.84813 15.4423 6.5592 14.7098 5.46287C13.9773 4.36654 12.9361 3.51206 11.7179 3.00747C10.4997 2.50289 9.15927 2.37087 7.86607 2.6281C6.57286 2.88534 5.38497 3.52027 4.45262 4.45262C3.52027 5.38497 2.88534 6.57286 2.6281 7.86607C2.37087 9.15927 2.50289 10.4997 3.00747 11.7179C3.51206 12.9361 4.36654 13.9773 5.46287 14.7098C6.5592 15.4423 7.84813 15.8333 9.16667 15.8333C10.6472 15.8352 12.0854 15.3392 13.25 14.425L16.075 17.2583C16.1525 17.3364 16.2446 17.3984 16.3462 17.4407C16.4477 17.4831 16.5567 17.5048 16.6667 17.5048C16.7767 17.5048 16.8856 17.4831 16.9871 17.4407C17.0887 17.3984 17.1809 17.3364 17.2583 17.2583C17.3364 17.1809 17.3984 17.0887 17.4407 16.9871C17.4831 16.8856 17.5048 16.7767 17.5048 16.6667C17.5048 16.5567 17.4831 16.4477 17.4407 16.3462C17.3984 16.2446 17.3364 16.1525 17.2583 16.075ZM4.16667 9.16667C4.16667 8.17776 4.45991 7.21106 5.00932 6.38882C5.55873 5.56657 6.33962 4.92571 7.25325 4.54727C8.16688 4.16883 9.17222 4.06982 10.1421 4.26274C11.112 4.45567 12.0029 4.93187 12.7022 5.63114C13.4015 6.3304 13.8777 7.22131 14.0706 8.19122C14.2635 9.16112 14.1645 10.1665 13.7861 11.0801C13.4076 11.9937 12.7668 12.7746 11.9445 13.324C11.1223 13.8734 10.1556 14.1667 9.16667 14.1667C7.84059 14.1667 6.56882 13.6399 5.63114 12.7022C4.69345 11.7645 4.16667 10.4928 4.16667 9.16667Z"
              fill="#808080"/>
    </symbol>

    <!-- eyeOff -->
    <symbol id="eyeOff" viewBox="0 0 24 24">
        <path d="M4.71 3.29C4.61676 3.19676 4.50607 3.1228 4.38425 3.07234C4.26243 3.02188 4.13186 2.99591 4 2.99591C3.86814 2.99591 3.73757 3.02188 3.61575 3.07234C3.49393 3.1228 3.38324 3.19676 3.29 3.29C3.10169 3.47831 2.99591 3.7337 2.99591 4C2.99591 4.2663 3.10169 4.5217 3.29 4.71L8.92 10.34C8.5638 11.0026 8.43058 11.7624 8.54009 12.5067C8.64959 13.2509 8.99599 13.9401 9.52794 14.4721C10.0599 15.004 10.7491 15.3504 11.4934 15.4599C12.2376 15.5694 12.9974 15.4362 13.66 15.08L19.29 20.71C19.383 20.8037 19.4936 20.8781 19.6154 20.9289C19.7373 20.9797 19.868 21.0058 20 21.0058C20.132 21.0058 20.2627 20.9797 20.3846 20.9289C20.5064 20.8781 20.617 20.8037 20.71 20.71C20.8037 20.617 20.8781 20.5064 20.9289 20.3846C20.9797 20.2627 21.0058 20.132 21.0058 20C21.0058 19.868 20.9797 19.7373 20.9289 19.6154C20.8781 19.4936 20.8037 19.383 20.71 19.29L4.71 3.29ZM12 13.5C11.6022 13.5 11.2206 13.342 10.9393 13.0607C10.658 12.7794 10.5 12.3978 10.5 12V11.93L12.06 13.49L12 13.5Z"/>
        <path d="M12.22 17C7.92 17.1 5.1 13.41 4.22 12C4.84647 11.0007 5.59936 10.0865 6.46 9.27999L5 7.87C3.87133 8.93347 2.90441 10.1564 2.13 11.5C2.04223 11.652 1.99603 11.8245 1.99603 12C1.99603 12.1755 2.04223 12.348 2.13 12.5C2.76 13.59 6.13 19 12.02 19H12.27C13.3775 18.9671 14.4708 18.7404 15.5 18.33L13.92 16.75C13.3644 16.8962 12.7942 16.98 12.22 17Z"/>
        <path d="M21.87 11.5C21.23 10.39 17.7 4.81999 11.73 4.99999C10.6225 5.03285 9.52924 5.25961 8.5 5.66999L10.08 7.24999C10.6356 7.10382 11.2058 7.01997 11.78 6.99999C16.07 6.88999 18.89 10.59 19.78 12C19.1381 13.0023 18.3682 13.9167 17.49 14.72L19 16.13C20.1428 15.0693 21.1234 13.8462 21.91 12.5C21.9918 12.3445 22.0311 12.1702 22.0241 11.9946C22.0171 11.8191 21.9639 11.6485 21.87 11.5Z"/>
    </symbol>

    <!-- eye -->
    <symbol id="eye" viewBox="0 0 24 24">
        <path d="M21.87 11.5C21.23 10.39 17.71 4.81999 11.73 4.99999C6.2 5.13999 3 9.99999 2.13 11.5C2.04223 11.652 1.99603 11.8245 1.99603 12C1.99603 12.1755 2.04223 12.348 2.13 12.5C2.76 13.59 6.13 19 12.02 19H12.27C17.8 18.86 21.01 14 21.87 12.5C21.9578 12.348 22.004 12.1755 22.004 12C22.004 11.8245 21.9578 11.652 21.87 11.5ZM12.22 17C7.91 17.1 5.1 13.41 4.22 12C5.22 10.39 7.83 7.09999 11.83 6.99999C16.12 6.88999 18.94 10.59 19.83 12C18.8 13.61 16.22 16.9 12.22 17Z"/>
        <path d="M12 8.5C11.3078 8.5 10.6311 8.70527 10.0555 9.08986C9.47993 9.47444 9.03133 10.0211 8.76642 10.6606C8.50152 11.3001 8.4322 12.0039 8.56725 12.6828C8.7023 13.3618 9.03564 13.9854 9.52513 14.4749C10.0146 14.9644 10.6383 15.2977 11.3172 15.4327C11.9961 15.5678 12.6999 15.4985 13.3394 15.2336C13.9789 14.9687 14.5256 14.5201 14.9101 13.9445C15.2947 13.3689 15.5 12.6922 15.5 12C15.5 11.0717 15.1313 10.1815 14.4749 9.52513C13.8185 8.86875 12.9283 8.5 12 8.5ZM12 13.5C11.7033 13.5 11.4133 13.412 11.1666 13.2472C10.92 13.0824 10.7277 12.8481 10.6142 12.574C10.5007 12.2999 10.4709 11.9983 10.5288 11.7074C10.5867 11.4164 10.7296 11.1491 10.9393 10.9393C11.1491 10.7296 11.4164 10.5867 11.7074 10.5288C11.9983 10.4709 12.2999 10.5006 12.574 10.6142C12.8481 10.7277 13.0824 10.92 13.2472 11.1666C13.412 11.4133 13.5 11.7033 13.5 12C13.5 12.3978 13.342 12.7794 13.0607 13.0607C12.7794 13.342 12.3978 13.5 12 13.5Z"/>
    </symbol>

    <!-- cross -->
    <symbol id="cross" viewBox="0 0 16 16" fill="none" xmlns="http://www.w3.org/2000/svg">
        <g clip-path="url(#clip0_5661_2449)">
            <path d="M8.94 7.99998L11.8067 5.13998C11.9322 5.01445 12.0027 4.84418 12.0027 4.66665C12.0027 4.48911 11.9322 4.31885 11.8067 4.19331C11.6811 4.06778 11.5109 3.99725 11.3333 3.99725C11.1558 3.99725 10.9855 4.06778 10.86 4.19331L8 7.05998L5.14 4.19331C5.01446 4.06778 4.8442 3.99725 4.66667 3.99725C4.48913 3.99725 4.31887 4.06778 4.19333 4.19331C4.0678 4.31885 3.99727 4.48911 3.99727 4.66665C3.99727 4.84418 4.0678 5.01445 4.19333 5.13998L7.06 7.99998L4.19333 10.86C4.13085 10.922 4.08125 10.9957 4.04741 11.0769C4.01356 11.1582 3.99613 11.2453 3.99613 11.3333C3.99613 11.4213 4.01356 11.5085 4.04741 11.5897C4.08125 11.6709 4.13085 11.7447 4.19333 11.8066C4.25531 11.8691 4.32904 11.9187 4.41028 11.9526C4.49152 11.9864 4.57866 12.0038 4.66667 12.0038C4.75467 12.0038 4.84181 11.9864 4.92305 11.9526C5.00429 11.9187 5.07802 11.8691 5.14 11.8066L8 8.93998L10.86 11.8066C10.922 11.8691 10.9957 11.9187 11.0769 11.9526C11.1582 11.9864 11.2453 12.0038 11.3333 12.0038C11.4213 12.0038 11.5085 11.9864 11.5897 11.9526C11.671 11.9187 11.7447 11.8691 11.8067 11.8066C11.8692 11.7447 11.9187 11.6709 11.9526 11.5897C11.9864 11.5085 12.0039 11.4213 12.0039 11.3333C12.0039 11.2453 11.9864 11.1582 11.9526 11.0769C11.9187 10.9957 11.8692 10.922 11.8067 10.86L8.94 7.99998Z"
                  fill="white"/>
        </g>
        <defs>
            <clipPath id="clip0_5661_2449">
                <rect width="16" height="16" fill="white"/>
            </clipPath>
        </defs>
    </symbol>

    <!-- close -->
    <symbol id="close" width="16" height="16" viewBox="0 0 24 24">
        <path d="m13.4 12 4.3-4.3a1 1 0 1 0-1.4-1.4L12 10.6 7.7 6.3a1 1 0 0 0-1.4 1.4l4.3 4.3-4.3 4.3A1 1 0 0 0 7 18a1 1 0 0 0 .7-.3l4.3-4.3 4.3 4.3a1 1 0 1 0 1.4-1.4L13.4 12Z"/>
    </symbol>

    <!-- play -->
    <symbol id="play" width="16" height="16" viewBox="0 0 24 24">
        <path d="M12 2a10 10 0 1 0 0 20 10 10 0 0 0 0-20Zm0 18a8 8 0 1 1 0-16 8 8 0 0 1 0 16Z"/>
        <path d="M12.3 7.5a1.7 1.7 0 0 0-1.8-.3 1.6 1.6 0 0 0-1 1.4v6.8a1.6 1.6 0 0 0 1 1.5 1.7 1.7 0 0 0 1.8-.3l3.7-3.4a1.6 1.6 0 0 0 0-2.4l-3.7-3.3Zm-.8 7.1V9.4l2.8 2.6-2.8 2.6Z"/>
    </symbol>

    <!-- edit -->
    <symbol id="edit" width="16" height="16" viewBox="0 0 24 24">
        <path d="M19 20H5a1 1 0 0 0 0 2h14a1 1 0 0 0 0-2ZM5 18h4l1-1 9-9a2 2 0 0 0 0-3l-2-2a2 2 0 0 0-3 0l-9 9-1 1v4a1 1 0 0 0 1 1ZM15 4l3 3-2 2-3-3 2-2Zm-9 9 6-6 3 3-6 6H6v-3Z"/>
    </symbol>

    <!-- remove -->
    <symbol id="remove" width="16" height="16" viewBox="0 0 24 24">
        <path d="M21 6h-5V4.3A2.4 2.4 0 0 0 13.5 2h-3A2.4 2.4 0 0 0 8 4.3V6H3a1 1 0 0 0 0 2h1v11a3 3 0 0 0 3 3h10a3 3 0 0 0 3-3V8h1a1 1 0 1 0 0-2ZM10 4.3c0-.1.2-.3.5-.3h3c.3 0 .5.2.5.3V6h-4V4.3ZM18 19a1 1 0 0 1-1 1H7a1 1 0 0 1-1-1V8h12v11Z"/>
    </symbol>

    <symbol id="arrow-back" xmlns="http://www.w3.org/2000/svg" width="24" height="24" viewBox="0 0 24 24">
        <path d="M19 11H7.1l3.7-4.4a1 1 0 0 0-1.6-1.2l-5 6v.1l-.1.1-.1.4v.4h.1l.1.2 5 6a1 1 0 0 0 1.6-1.2L7 13H19a1 1 0 0 0 0-2Z"/>
    </symbol>

    <symbol id="img" width="17" height="16" viewBox="0 0 17 16" fill="none" xmlns="http://www.w3.org/2000/svg">
        <path d="M12.5 2H4.5C3.96957 2 3.46086 2.21071 3.08579 2.58579C2.71071 2.96086 2.5 3.46957 2.5 4V12C2.5 12.5304 2.71071 13.0391 3.08579 13.4142C3.46086 13.7893 3.96957 14 4.5 14H12.5C13.0304 14 13.5391 13.7893 13.9142 13.4142C14.2893 13.0391 14.5 12.5304 14.5 12V4C14.5 3.46957 14.2893 2.96086 13.9142 2.58579C13.5391 2.21071 13.0304 2 12.5 2ZM4.5 3.33333H12.5C12.6768 3.33333 12.8464 3.40357 12.9714 3.5286C13.0964 3.65362 13.1667 3.82319 13.1667 4V9.57333L11.0333 7.75333C10.7028 7.48136 10.288 7.33266 9.86 7.33266C9.43195 7.33266 9.0172 7.48136 8.68667 7.75333L3.83333 11.8V4C3.83333 3.82319 3.90357 3.65362 4.0286 3.5286C4.15362 3.40357 4.32319 3.33333 4.5 3.33333ZM12.5 12.6667H4.87333L9.54 8.77333C9.62965 8.70677 9.73834 8.67083 9.85 8.67083C9.96166 8.67083 10.0704 8.70677 10.16 8.77333L13.1667 11.3333V12C13.1667 12.1768 13.0964 12.3464 12.9714 12.4714C12.8464 12.5964 12.6768 12.6667 12.5 12.6667Z"
              fill="white"/>
        <path d="M5.8335 6.66675C6.38578 6.66675 6.8335 6.21903 6.8335 5.66675C6.8335 5.11446 6.38578 4.66675 5.8335 4.66675C5.28121 4.66675 4.8335 5.11446 4.8335 5.66675C4.8335 6.21903 5.28121 6.66675 5.8335 6.66675Z"
              fill="white"/>
    </symbol>

    <!-- star -->
    <symbol id="star" xmlns="http://www.w3.org/2000/svg" viewBox="0 0 20 19">
        <path d="M15.56 19a1 1 0 0 1-.46-.11L10 16.22l-5.1 2.67a1 1 0 0 1-1.45-1.06l1-5.63-4.12-4a1 1 0 0 1-.25-1 1 1 0 0 1 .81-.68l5.7-.83L9.1.56a1 1 0 0 1 1.8 0l2.54 5.12 5.7.83a1 1 0 0 1 .81.68 1 1 0 0 1-.25 1l-4.12 4 1 5.63a1 1 0 0 1-.4 1 1 1 0 0 1-.62.18Z"/>
    </symbol>
</svg>



