<?xml version="1.0" encoding="UTF-8"?>
<!DOCTYPE svg PUBLIC "-//W3C//DTD SVG 1.1//EN" "http://www.w3.org/Graphics/SVG/1.1/DTD/svg11.dtd">
<svg xmlns="http://www.w3.org/2000/svg" version="1.1" width="1246px" height="2219px" style="shape-rendering:geometricPrecision; text-rendering:geometricPrecision; image-rendering:optimizeQuality; fill-rule:evenodd; clip-rule:evenodd" xmlns:xlink="http://www.w3.org/1999/xlink">
<g><path style="opacity:0.998" fill="#6a61a8" d="M 981.5,-0.5 C 981.833,-0.5 982.167,-0.5 982.5,-0.5C 1047.89,377.302 1113.23,755.136 1178.5,1133C 1178.17,1133.83 1177.83,1134.67 1177.5,1135.5C 1121.59,1145.68 1065.59,1155.35 1009.5,1164.5C 895.092,907.344 780.925,650.011 667,392.5C 574.184,433.663 481.351,474.829 388.5,516C 387.207,516.49 385.873,516.657 384.5,516.5C 361.5,382.5 338.5,248.5 315.5,114.5C 537.734,76.7951 759.734,38.4617 981.5,-0.5 Z"/></g>
<g><path style="opacity:0.999" fill="#746fb1" d="M 1009.5,1164.5 C 1050.96,1257.92 1092.29,1351.42 1133.5,1445C 1092.95,1464.36 1051.95,1482.86 1010.5,1500.5C 1001.54,1491.03 993.042,1481.03 985,1470.5C 833.167,1279.33 681.333,1088.17 529.5,897C 527.369,897.398 525.369,898.398 523.5,900C 431.958,973.047 340.292,1045.88 248.5,1118.5C 181.848,967.859 115.181,817.193 48.5,666.5C 160.411,616.307 272.411,566.307 384.5,516.5C 385.873,516.657 387.207,516.49 388.5,516C 481.351,474.829 574.184,433.663 667,392.5C 780.925,650.011 895.092,907.344 1009.5,1164.5 Z"/></g>
<g><path style="opacity:0.998" fill="#797ab8" d="M 1010.5,1500.5 C 1088.48,1599.15 1166.82,1697.48 1245.5,1795.5C 1245.5,1796.5 1245.5,1797.5 1245.5,1798.5C 1069.61,1938.27 893.945,2078.27 718.5,2218.5C 717.5,2218.5 716.5,2218.5 715.5,2218.5C 476.822,1918.46 238.156,1618.46 -0.5,1318.5C -0.5,1317.5 -0.5,1316.5 -0.5,1315.5C 82.7688,1250.24 165.769,1184.57 248.5,1118.5C 340.292,1045.88 431.958,973.047 523.5,900C 525.369,898.398 527.369,897.398 529.5,897C 681.333,1088.17 833.167,1279.33 985,1470.5C 993.042,1481.03 1001.54,1491.03 1010.5,1500.5 Z"/></g>
</svg>
